<?xml version="1.0" encoding="utf-8"?>
<!-- Generator: Adobe Illustrator 19.1.0, SVG Export Plug-In . SVG Version: 6.00 Build 0)  -->
<svg version="1.1" id="Layer_1" xmlns:sketch="http://www.bohemiancoding.com/sketch/ns"
	 xmlns="http://www.w3.org/2000/svg" xmlns:xlink="http://www.w3.org/1999/xlink" x="0px" y="0px" viewBox="-295 387 20 20"
	 style="enable-background:new -295 387 20 20;" xml:space="preserve">
<style type="text/css">
	.st0{fill:#2C2C2C;}
</style>
<title>SP_x2_FilteringLayerSearch_Xs_N_D</title>
<desc>Created with Sketch.</desc>
<g id="Page-1" sketch:type="MSPage">
	<g id="SP_x2_FilteringLayerSearch_Xs_N_D" sketch:type="MSArtboardGroup">
		<path id="Fill-2" sketch:type="MSShapeGroup" class="st0" d="M-294.3,403.4c0,0-1.4,1.4,0,3c1.3,1.4,2.9,0,2.9,0l4.8-4.5
			c0,0,2.2,0.9,3.7,0.9c4.4,0,7.9-3.5,7.9-7.9c0-4.3-3.5-7.9-7.9-7.9s-7.9,3.5-7.9,7.9c0,1.4,0.3,2.6,0.9,3.7L-294.3,403.4
			L-294.3,403.4z M-288.5,394.9c0-3.1,2.5-5.7,5.7-5.7c3.1,0,5.7,2.5,5.7,5.7c0,3.1-2.5,5.7-5.7,5.7
			C-285.9,400.6-288.5,398-288.5,394.9L-288.5,394.9z"/>
	</g>
</g>
</svg>
